
      <svg data-logo="logo" xmlns="http://www.w3.org/2000/svg" viewBox="0 0 158 43">
        <g id="logogram" transform="translate(0, 1) rotate(0)"><path d="M17.3991 3.08704L20.0562 0.429993L40.0562 20.43L20.0562 40.43L17.3991 37.7729L34.742 20.43L17.3991 3.08704Z" fill="#39BCF8"/><path d="M13.9305 6.55563L16.5876 3.89858L33.119 20.43L16.5876 36.9614L13.9305 34.3044L27.8049 20.43L13.9305 6.55563Z" fill="#39BCF8"/><path d="M0.0561537 20.43L13.119 7.36717L26.1818 20.43L13.119 33.4928L10.4619 30.8357L20.8677 20.43L13.119 12.6813L2.7132 23.087L0.0561537 20.43Z" fill="#39BCF8"/><path d="M13.119 14.3044L10.4619 16.9614L13.9305 20.43L6.99333 27.3672L9.65037 30.0242L19.2446 20.43L13.119 14.3044Z" fill="#39BCF8"/><path d="M6.1818 26.5556L3.52474 23.8986L9.62258 17.8007L12.2796 20.4578L6.1818 26.5556Z" fill="#39BCF8"/></g>
        <g id="logotype" transform="translate(43, 8)"><path fill="#111111" d="M9.52 27L4.31 27L4.31 1.54L21.06 1.54L21.06 5.86L9.52 5.86L9.52 12.97L19.93 12.97L19.93 17.22L9.52 17.22L9.52 27ZM27.58 27L22.45 27L22.45 7.89L27.58 7.89L27.58 27ZM25.02 5.40L25.02 5.40Q23.86 5.40 23.04 4.63Q22.22 3.86 22.22 2.77L22.22 2.77Q22.22 1.67 23.04 0.90Q23.86 0.13 25.02 0.13L25.02 0.13Q26.18 0.13 27.01 0.90Q27.84 1.66 27.84 2.77L27.84 2.77Q27.84 3.86 27.01 4.63Q26.18 5.40 25.02 5.40ZM34.79 15.94L34.79 15.94L34.79 27L29.66 27L29.66 7.89L34.50 7.89L34.59 12.66L34.28 12.66Q35.03 10.27 36.56 8.96Q38.09 7.65 40.52 7.65L40.52 7.65Q42.50 7.65 43.97 8.52Q45.44 9.38 46.26 11.00Q47.08 12.61 47.08 14.85L47.08 14.85L47.08 27L41.95 27L41.95 15.74Q41.95 13.96 41.04 12.95Q40.12 11.94 38.50 11.94L38.50 11.94Q37.42 11.94 36.58 12.41Q35.73 12.88 35.26 13.77Q34.79 14.66 34.79 15.94ZM54.31 27L49.18 27L49.18 7.89L53.93 7.89L54.19 12.64L53.81 12.64Q54.25 10.88 55.12 9.77Q55.98 8.66 57.14 8.13Q58.30 7.60 59.59 7.60L59.59 7.60Q61.65 7.60 62.92 8.91Q64.18 10.22 64.78 12.95L64.78 12.95L64.18 12.95Q64.61 11.12 65.58 9.94Q66.54 8.75 67.87 8.18Q69.19 7.60 70.64 7.60L70.64 7.60Q72.40 7.60 73.78 8.37Q75.16 9.14 75.95 10.59Q76.74 12.03 76.74 14.11L76.74 14.11L76.74 27L71.62 27L71.62 15.09Q71.62 13.46 70.74 12.68Q69.86 11.89 68.58 11.89L68.58 11.89Q67.62 11.89 66.91 12.31Q66.20 12.73 65.82 13.48Q65.43 14.23 65.43 15.24L65.43 15.24L65.43 27L60.48 27L60.48 14.95Q60.48 13.55 59.65 12.72Q58.82 11.89 57.50 11.89L57.50 11.89Q56.60 11.89 55.87 12.30Q55.14 12.71 54.72 13.51Q54.31 14.30 54.31 15.45L54.31 15.45L54.31 27ZM84.18 27.38L84.18 27.38Q82.37 27.38 80.92 26.74Q79.48 26.09 78.65 24.82Q77.82 23.55 77.82 21.65L77.82 21.65Q77.82 20.06 78.41 18.98Q79.00 17.91 80.02 17.26Q81.03 16.61 82.32 16.27Q83.61 15.93 85.03 15.79L85.03 15.79Q86.69 15.62 87.71 15.47Q88.72 15.33 89.19 15.01Q89.66 14.70 89.66 14.08L89.66 14.08L89.66 13.99Q89.66 13.17 89.32 12.61Q88.98 12.05 88.31 11.75Q87.65 11.45 86.67 11.45L86.67 11.45Q85.68 11.45 84.95 11.75Q84.21 12.05 83.75 12.54Q83.29 13.04 83.07 13.65L83.07 13.65L78.37 12.87Q78.86 11.21 80.01 10.05Q81.15 8.88 82.85 8.27Q84.55 7.65 86.67 7.65L86.67 7.65Q88.23 7.65 89.68 8.02Q91.13 8.39 92.29 9.16Q93.44 9.93 94.11 11.16Q94.79 12.39 94.79 14.13L94.79 14.13L94.79 27L89.94 27L89.94 24.35L89.77 24.35Q89.30 25.24 88.53 25.91Q87.77 26.59 86.68 26.98Q85.60 27.38 84.18 27.38ZM85.63 23.77L85.63 23.77Q86.84 23.77 87.76 23.29Q88.67 22.81 89.18 21.99Q89.70 21.17 89.70 20.16L89.70 20.16L89.70 18.10Q89.47 18.27 89.01 18.40Q88.55 18.54 87.99 18.64Q87.42 18.75 86.88 18.83Q86.33 18.92 85.90 18.97L85.90 18.97Q84.96 19.10 84.25 19.41Q83.53 19.72 83.13 20.22Q82.74 20.73 82.74 21.51L82.74 21.51Q82.74 22.25 83.12 22.75Q83.49 23.26 84.13 23.51Q84.78 23.77 85.63 23.77ZM102.02 15.94L102.02 15.94L102.02 27L96.89 27L96.89 7.89L101.73 7.89L101.81 12.66L101.50 12.66Q102.26 10.27 103.79 8.96Q105.31 7.65 107.74 7.65L107.74 7.65Q109.72 7.65 111.19 8.52Q112.66 9.38 113.48 11.00Q114.30 12.61 114.30 14.85L114.30 14.85L114.30 27L109.18 27L109.18 15.74Q109.18 13.96 108.26 12.95Q107.35 11.94 105.73 11.94L105.73 11.94Q104.65 11.94 103.80 12.41Q102.96 12.88 102.49 13.77Q102.02 14.66 102.02 15.94Z"/></g>
        
      </svg>
    
